HIERARCHY
ROOT hip
{
  OFFSET 0 0 0
  CHANNELS 6 Xposition Yposition Zposition Zrotation Yrotation Xrotation
  JOINT abdomen
  {
    OFFSET 0 20.6881 -0.73152
    CHANNELS 3 Zrotation Xrotation Yrotation
    JOINT chest
    {
      OFFSET 0 11.7043 -0.48768
      CHANNELS 3 Zrotation Xrotation Yrotation
      JOINT neck
      {
        OFFSET 0 22.1894 -2.19456
        CHANNELS 3 Zrotation Xrotation Yrotation
        JOINT head
        {
          OFFSET -0.24384 7.07133 1.2192
          CHANNELS 3 Zrotation Xrotation Yrotation
          JOINT leftEye
          {
            OFFSET 4.14528 8.04674 8.04672
            CHANNELS 3 Zrotation Xrotation Yrotation
            End Site
            {
              OFFSET 1 0 0
            }
          }
          JOINT rightEye
          {
            OFFSET -3.6576 8.04674 8.04672
            CHANNELS 3 Zrotation Xrotation Yrotation
            End Site
            {
              OFFSET 1 0 0
            }
          }
        }
      }
      JOINT rCollar
      {
        OFFSET -2.68224 19.2634 -4.8768
        CHANNELS 3 Zrotation Xrotation Yrotation
        JOINT rShldr
        {
          OFFSET -8.77824 -1.95073 1.46304
          CHANNELS 3 Zrotation Xrotation Yrotation
          JOINT rForeArm
          {
            OFFSET -28.1742 -1.7115 0.48768
            CHANNELS 3 Zrotation Xrotation Yrotation
            JOINT rHand
            {
              OFFSET -22.5879 0.773209 7.07136
              CHANNELS 3 Zrotation Xrotation Yrotation
              JOINT rThumb1
              {
                OFFSET -1.2192 -0.487915 3.41376
                CHANNELS 3 Zrotation Xrotation Yrotation
                JOINT rThumb2
                {
                  OFFSET -3.37035 -0.52449 3.41376
                  CHANNELS 3 Zrotation Xrotation Yrotation
                  End Site
                  {
                    OFFSET -1.78271 -1.18214 1.43049
                  }
                }
              }
              JOINT rIndex1
              {
                OFFSET -7.75947 0.938293 5.60832
                CHANNELS 3 Zrotation Xrotation Yrotation
                JOINT rIndex2
                {
                  OFFSET -2.54057 -0.884171 1.56538
                  CHANNELS 3 Zrotation Xrotation Yrotation
                  End Site
                  {
                    OFFSET -1.62519 -0.234802 1.16502
                  }
                }
              }
              JOINT rMid1
              {
                OFFSET -8.24714 1.18213 3.41376
                CHANNELS 3 Zrotation Xrotation Yrotation
                JOINT rMid2
                {
                  OFFSET -3.10165 -0.590103 1.0647
                  CHANNELS 3 Zrotation Xrotation Yrotation
                  End Site
                  {
                    OFFSET -2.48547 -0.328903 0.83742
                  }
                }
              }
              JOINT rRing1
              {
                OFFSET -8.82822 0.546677 1.51678
                CHANNELS 3 Zrotation Xrotation Yrotation
                JOINT rRing2
                {
                  OFFSET -2.60934 -0.819778 -0.0198488
                  CHANNELS 3 Zrotation Xrotation Yrotation
                  End Site
                  {
                    OFFSET -2.33842 -0.294052 0.168128
                  }
                }
              }
              JOINT rPinky1
              {
                OFFSET -8.27202 -0.0477905 -0.4584
                CHANNELS 3 Zrotation Xrotation Yrotation
                JOINT rPinky2
                {
                  OFFSET -1.82734 -0.647385 -0.700984
                  CHANNELS 3 Zrotation Xrotation Yrotation
                  End Site
                  {
                    OFFSET -1.69225 -0.51767 -0.607171
                  }
                }
              }
            }
          }
        }
      }
      JOINT lCollar
      {
        OFFSET 2.68224 19.2634 -4.8768
        CHANNELS 3 Zrotation Xrotation Yrotation
        JOINT lShldr
        {
          OFFSET 8.77824 -1.95073 1.46304
          CHANNELS 3 Zrotation Xrotation Yrotation
          JOINT lForeArm
          {
            OFFSET 28.1742 -1.7115 0.48768
            CHANNELS 3 Zrotation Xrotation Yrotation
            JOINT lHand
            {
              OFFSET 22.5879 0.773209 7.07136
              CHANNELS 3 Zrotation Xrotation Yrotation
              JOINT lThumb1
              {
                OFFSET 1.2192 -0.487915 3.41376
                CHANNELS 3 Zrotation Xrotation Yrotation
                JOINT lThumb2
                {
                  OFFSET 3.37035 -0.52449 3.41376
                  CHANNELS 3 Zrotation Xrotation Yrotation
                  End Site
                  {
                    OFFSET 1.78271 -1.18214 1.43049
                  }
                }
              }
              JOINT lIndex1
              {
                OFFSET 7.75947 0.938293 5.60832
                CHANNELS 3 Zrotation Xrotation Yrotation
                JOINT lIndex2
                {
                  OFFSET 2.54057 -0.884171 1.56538
                  CHANNELS 3 Zrotation Xrotation Yrotation
                  End Site
                  {
                    OFFSET 1.62519 -0.234802 1.16502
                  }
                }
              }
              JOINT lMid1
              {
                OFFSET 8.24714 1.18213 3.41376
                CHANNELS 3 Zrotation Xrotation Yrotation
                JOINT lMid2
                {
                  OFFSET 3.10165 -0.590103 1.0647
                  CHANNELS 3 Zrotation Xrotation Yrotation
                  End Site
                  {
                    OFFSET 2.48547 -0.328903 0.83742
                  }
                }
              }
              JOINT lRing1
              {
                OFFSET 8.82822 0.546677 1.51678
                CHANNELS 3 Zrotation Xrotation Yrotation
                JOINT lRing2
                {
                  OFFSET 2.60934 -0.819778 -0.0198488
                  CHANNELS 3 Zrotation Xrotation Yrotation
                  End Site
                  {
                    OFFSET 2.33842 -0.294052 0.168128
                  }
                }
              }
              JOINT lPinky1
              {
                OFFSET 8.27202 -0.0477905 -0.4584
                CHANNELS 3 Zrotation Xrotation Yrotation
                JOINT lPinky2
                {
                  OFFSET 1.82734 -0.647385 -0.700984
                  CHANNELS 3 Zrotation Xrotation Yrotation
                  End Site
                  {
                    OFFSET 1.69225 -0.51767 -0.607171
                  }
                }
              }
            }
          }
        }
      }
    }
  }
  JOINT rButtock
  {
    OFFSET -8.77824 4.35084 1.2192
    CHANNELS 3 Zrotation Xrotation Yrotation
    JOINT rThigh
    {
      OFFSET 0 -1.70687 -2.19456
      CHANNELS 3 Zrotation Xrotation Yrotation
      JOINT rShin
      {
        OFFSET 0 -36.8199 0.73152
        CHANNELS 3 Zrotation Xrotation Yrotation
        JOINT rFoot
        {
          OFFSET 0.73152 -45.1104 -5.12064
          CHANNELS 3 Zrotation Xrotation Yrotation
          End Site
          {
            OFFSET -1.1221 -3.69964 12.103
          }
        }
      }
    }
  }
  JOINT lButtock
  {
    OFFSET 8.77824 4.35084 1.2192
    CHANNELS 3 Zrotation Xrotation Yrotation
    JOINT lThigh
    {
      OFFSET 0 -1.70687 -2.19456
      CHANNELS 3 Zrotation Xrotation Yrotation
      JOINT lShin
      {
        OFFSET 0 -36.8199 0.73152
        CHANNELS 3 Zrotation Xrotation Yrotation
        JOINT lFoot
        {
          OFFSET -0.73152 -45.1104 -5.12064
          CHANNELS 3 Zrotation Xrotation Yrotation
          End Site
          {
            OFFSET 1.1221 -3.69964 12.103
          }
        }
      }
    }
  }
}
MOTION
Frames:	5
Frame Time:	0.00833333
-7.93708 85.1388 134.525 0.0 0.0 0.0 0.410574 -0.00336392 0.0117802 0.113454 -0.00539466 0.0196586 -5.45559e-15 7.95139e-16 -1.49088e-16 -1.64712e-14 9.54166e-15 -4.70561e-16 -0.0 0.0 0.0 -0.0 0.0 0.0 -2.73472e-15 -3.10601e-18 0.0 -5.68983e-14 1.86361e-17 -7.95139e-16 -9.94172e-13 2.99569e-13 -4.77083e-14 -1.14235e-11 -3.00711e-13 -2.98972e-13 -2.69419e-11 -4.82685e-15 -7.34708e-13 -4.65267e-11 -9.54166e-15 -1.28256e-12 -2.69377e-11 -2.78299e-15 -7.53791e-13 7.73091 5.47488 0.417314 -2.69428e-11 -5.56597e-15 -7.41069e-13 2.90554 0.965183 0.102902 -2.69343e-11 -4.77083e-15 -7.45045e-13 10.2786 0.731801 0.0259123 -2.69425e-11 -1.98785e-15 -7.4425e-13 2.22167 -0.733487 -0.20892 -2.83143e-15 -3.68839e-18 -1.98785e-16 -6.00269e-14 -2.73329e-16 -2.98177e-15 -9.99589e-13 -3.01755e-13 3.18055e-15 -1.14222e-11 2.91965e-13 -3.435e-13 -2.69435e-11 -1.88378e-14 -7.4743e-13 -4.65176e-11 -3.18055e-14 -1.28494e-12 -2.69472e-11 -2.06736e-14 -7.4425e-13 -7.73091 5.47488 -0.417314 -2.69446e-11 -1.87852e-14 -7.4743e-13 -2.90554 0.965183 -0.102902 -2.69474e-11 -1.86858e-14 -7.45045e-13 -10.2786 0.731801 -0.0259123 -2.69373e-11 -1.74931e-14 -7.53791e-13 -2.22167 -0.733487 0.20892 -2.03217e-16 0.0 -3.88251e-19 0.770913 -4.17178 -0.0656922 -0.00265706 2.00547 -0.0182899 -0.462149 2.16691 0.0961438 2.03217e-16 0.0 3.88251e-19 -0.142927 -2.55997 0.0260618 0.00716097 -0.914057 0.0621522 0.453455 3.47456 -0.121179
-7.91091 83.4839 128.439 175.987 1.4271 -156.795 -2.06256 -4.82309 -0.761598 1.28669 3.92088 -0.267213 -0.303692 4.26931 -0.859741 1.56991 0.65007 -0.397169 -0.0 0.0 0.0 -0.0 0.0 0.0 1.00453e-15 -4.61942e-14 -1.06695e-14 22.241 3.46901 -3.0265 -8.69696 -5.57901 11.3598 0.00292232 -1.20584 -0.169337 3.13055e-10 -6.45049e-10 -2.48411e-10 5.42966e-10 -1.11619e-09 -4.27983e-10 3.13066e-10 -6.4505e-10 -2.48424e-10 7.73091 5.47488 0.417314 3.13054e-10 -6.4505e-10 -2.48415e-10 2.90554 0.965183 0.102902 3.13064e-10 -6.45049e-10 -2.48419e-10 10.2786 0.731801 0.0259123 3.13055e-10 -6.45048e-10 -2.48417e-10 2.22167 -0.733487 -0.20892 9.56214e-16 -4.61957e-14 -1.08706e-14 -20.2078 7.47799 -2.38369 7.11714 -4.13623 -9.96472 -0.048909 -5.30886 0.736545 -9.09912e-11 -4.48096e-10 1.06083e-10 -1.60616e-10 -7.79056e-10 1.82472e-10 -9.09952e-11 -4.48098e-10 1.06087e-10 -7.73091 5.47488 -0.417314 -9.09913e-11 -4.48096e-10 1.06085e-10 -2.90554 0.965183 -0.102902 -9.09945e-11 -4.48097e-10 1.06085e-10 -10.2786 0.731801 -0.0259123 -9.09847e-11 -4.48095e-10 1.06076e-10 -2.22167 -0.733487 0.20892 -2.03217e-16 0.0 -3.88251e-19 -0.275587 -13.3282 2.68561 0.0017542 5.66797 0.0554847 -0.613168 -2.31599 -0.660469 2.03217e-16 0.0 3.88251e-19 -2.06943 -9.86362 -1.16744 0.00868262 1.0726 0.0405043 0.558532 3.07323 -1.69877
-7.96042 83.1605 128.85 176.143 1.0106 -154.868 -4.84183 -9.88896 -1.6029 2.57488 8.05946 -0.576127 -0.487524 8.76824 -1.78459 3.24231 1.3627 -0.814529 -0.0 0.0 0.0 -0.0 0.0 0.0 4.34322e-15 -1.01977e-13 -2.23726e-14 46.152 7.10616 -6.26817 -15.5243 -10.7513 23.7065 -0.00174742 -2.46592 -0.346546 7.20318e-10 -1.3978e-09 -5.30885e-10 1.249e-09 -2.41869e-09 -9.14489e-10 7.20337e-10 -1.3978e-09 -5.30891e-10 7.73091 5.47488 0.417314 7.20318e-10 -1.3978e-09 -5.30886e-10 2.90554 0.965183 0.102902 7.20328e-10 -1.3978e-09 -5.3089e-10 10.2786 0.731801 0.0259123 7.20318e-10 -1.3978e-09 -5.30886e-10 2.22167 -0.733487 -0.20892 4.3477e-15 -1.01979e-13 -2.25776e-14 -40.8667 15.2516 -5.04682 13.1239 -8.11785 -20.6982 0.0574261 -11.1515 1.57056 -1.45819e-10 -9.51978e-10 2.26455e-10 -2.59245e-10 -1.65512e-09 3.89537e-10 -1.45824e-10 -9.51981e-10 2.2646e-10 -7.73091 5.47488 -0.417314 -1.45818e-10 -9.5198e-10 2.26458e-10 -2.90554 0.965183 -0.102902 -1.45822e-10 -9.51981e-10 2.26455e-10 -10.2786 0.731801 -0.0259123 -1.45812e-10 -9.51979e-10 2.26446e-10 -2.22167 -0.733487 0.20892 -2.03217e-16 0.0 -3.88251e-19 -0.365618 -22.9204 5.91692 -0.00399735 9.54846 0.134901 -0.901113 -7.06878 -1.46085 2.03217e-16 0.0 3.88251e-19 -4.46801 -17.5527 -2.51464 0.0119562 3.17312 0.0176928 0.647447 2.67862 -3.3931
-7.85759 83.1315 128.801 176.422 0.7858 -154.68 -7.40988 -14.4519 -2.37547 3.75322 11.7723 -0.85711 -0.518515 12.7963 -2.63762 4.73679 1.94984 -1.19212 -0.0 0.0 0.0 -0.0 0.0 0.0 8.48303e-15 -1.38577e-13 -3.20086e-14 67.8326 10.29 -9.21228 -19.7257 -14.0983 35.121 -0.0126521 -3.61738 -0.508911 9.93048e-10 -1.93514e-09 -7.43764e-10 1.72195e-09 -3.34854e-09 -1.28138e-09 9.93073e-10 -1.93515e-09 -7.43764e-10 7.73091 5.47488 0.417314 9.93049e-10 -1.93514e-09 -7.43763e-10 2.90554 0.965183 0.102902 9.9306e-10 -1.93514e-09 -7.43766e-10 10.2786 0.731801 0.0259123 9.93049e-10 -1.93514e-09 -7.43761e-10 2.22167 -0.733487 -0.20892 8.5315e-15 -1.3858e-13 -3.22144e-14 -58.6344 22.2722 -7.66514 17.1887 -10.9084 -30.4215 0.276526 -15.9158 2.2879 -2.19087e-10 -1.34425e-09 3.19745e-10 -3.88814e-10 -2.3371e-09 5.49985e-10 -2.19091e-10 -1.34425e-09 3.19751e-10 -7.73091 5.47488 -0.417314 -2.19085e-10 -1.34425e-09 3.1975e-10 -2.90554 0.965183 -0.102902 -2.19089e-10 -1.34425e-09 3.19745e-10 -10.2786 0.731801 -0.0259123 -2.19079e-10 -1.34425e-09 3.19736e-10 -2.22167 -0.733487 0.20892 -2.03217e-16 0.0 -3.88251e-19 0.655105 -31.3425 9.34388 -0.0183584 12.9929 0.20751 -1.27559 -11.274 -2.2147 2.03217e-16 0.0 3.88251e-19 -6.91319 -24.4282 -3.84749 0.0162305 5.04591 -0.00280787 0.702368 2.26647 -4.85086
-7.77961 83.1134 128.77 176.723 0.6462 -154.466 -9.16238 -17.7679 -2.91303 4.57117 14.4218 -1.05289 -0.445572 15.658 -3.25626 5.76592 2.22362 -1.46961 -0.0 0.0 0.0 -0.0 0.0 0.0 1.46257e-14 -1.2722e-13 -3.6477e-14 83.1464 12.4531 -11.2851 -21.781 -15.4319 43.2018 -0.0248716 -4.49741 -0.633384 9.29446e-10 -1.93396e-09 -7.82655e-10 1.61223e-09 -3.34677e-09 -1.34926e-09 9.29473e-10 -1.93397e-09 -7.82652e-10 7.73091 5.47488 0.417314 9.29446e-10 -1.93396e-09 -7.82652e-10 2.90554 0.965183 0.102902 9.29457e-10 -1.93396e-09 -7.82655e-10 10.2786 0.731801 0.0259123 9.29446e-10 -1.93396e-09 -7.82649e-10 2.22167 -0.733487 -0.20892 1.46961e-14 -1.27224e-13 -3.66758e-14 -70.5771 27.5602 -9.71388 19.3398 -12.2034 -37.1003 0.414487 -17.9975 2.6169 -3.38452e-10 -1.45749e-09 3.45332e-10 -5.95731e-10 -2.53388e-09 5.93886e-10 -3.38456e-10 -1.45749e-09 3.45338e-10 -7.73091 5.47488 -0.417314 -3.38449e-10 -1.45749e-09 3.45338e-10 -2.90554 0.965183 -0.102902 -3.38454e-10 -1.45749e-09 3.45331e-10 -10.2786 0.731801 -0.0259123 -3.38445e-10 -1.45749e-09 3.45322e-10 -2.22167 -0.733487 0.20892 -2.03217e-16 0.0 -3.88251e-19 2.19966 -37.1164 12.2129 -0.0334035 15.3473 0.258965 -1.61513 -14.1179 -2.81002 2.03217e-16 0.0 3.88251e-19 -8.75098 -29.3099 -4.87797 0.0198441 6.34936 -0.0174445 0.713326 1.81324 -5.71911
